<svg width="302" height="205" viewBox="0 0 302 205" fill="none" xmlns="http://www.w3.org/2000/svg">
<path fill-rule="evenodd" clip-rule="evenodd" d="M81.9438 62.5929V115.617Z" fill="#526B56"/>
<path d="M81.9438 62.5929V115.617" stroke="#023C22" stroke-linecap="square"/>
<path d="M81.4359 118.142C84.2399 118.142 86.513 116.107 86.513 113.597C86.513 111.087 84.2399 109.052 81.4359 109.052C78.632 109.052 76.3589 111.087 76.3589 113.597C76.3589 116.107 78.632 118.142 81.4359 118.142Z" fill="#526B56" stroke="#023C22" stroke-width="2"/>
<path fill-rule="evenodd" clip-rule="evenodd" d="M73.1253 110.256L75.8419 109.323L77.4572 111.029M72.2671 114.122L74.3688 112.088L76.5583 112.909M73.0832 118.037L74.4333 115.688L77.0447 115.458M75.7893 120.159L76.3456 117.096L78.6154 116.28M89.7467 110.256L87.0302 109.323L85.4149 111.029M90.605 114.122L88.5033 112.088L86.3138 112.909M89.7889 118.037L88.4388 115.688L85.8274 115.458M87.0828 120.159L86.5265 117.096L84.2567 116.28" fill="#526B56"/>
<path d="M73.1253 110.256L75.8419 109.323L77.4572 111.029M72.2671 114.122L74.3688 112.088L76.5583 112.909M73.0832 118.037L74.4333 115.688L77.0447 115.458M75.7893 120.159L76.3456 117.096L78.6154 116.28M89.7467 110.256L87.0302 109.323L85.4149 111.029M90.605 114.122L88.5033 112.088L86.3138 112.909M89.7889 118.037L88.4388 115.688L85.8274 115.458M87.0828 120.159L86.5265 117.096L84.2567 116.28" stroke="#023C22" stroke-width="0.5"/>
<path d="M257.46 78H301.422V204.149H257.46V78Z" fill="#526B56" fill-opacity="0.14" stroke="#023C22" stroke-width="4"/>
<path d="M257.46 163.657H301.422V176.116H257.46V163.657Z" fill="#526B56" stroke="#023C22" stroke-width="4"/>
<path d="M257.46 173.001H301.422V185.46H257.46V173.001Z" fill="#526B56" stroke="#023C22" stroke-width="4"/>
<path d="M215.066 106.002H251.178V204.118H215.066V106.002Z" fill="#526B56" stroke="#023C22" stroke-width="4"/>
<path d="M215.066 174.525H251.178V183.87H215.066V174.525Z" fill="#526B56" fill-opacity="0.14" stroke="#023C22" stroke-width="4"/>
<path opacity="0.3" d="M226.057 186.984H241.758V196.329H226.057V186.984Z" stroke="#023C22" stroke-width="4"/>
<path fill-rule="evenodd" clip-rule="evenodd" d="M107 167H200.42C200.42 167 197.469 179.218 197.469 185.5C197.469 191.782 200.42 203.389 200.42 203.389L107 204C107 204 103.897 190.699 103.897 184.009C103.897 177.32 107 167 107 167Z" fill="#526B56" fill-opacity="0.14"/>
<path d="M205.626 204.083H106.711C106.711 204.083 102.54 193.079 102.54 183.71C102.54 174.34 106.711 165.148 106.711 165.148H205.626" stroke="#023C22" stroke-width="4"/>
<path d="M200.843 168.263C200.843 168.263 197.875 176.439 197.875 184.615C197.875 192.792 201.843 201.968 201.843 201.968" stroke="#023C22" stroke-width="2" stroke-linecap="square"/>
<path opacity="0.14" d="M137.327 174.492H196.991M138.897 193.181H181.29M159.308 183.837H195.42M149.888 183.837H153.028" stroke="#023C22" stroke-width="2" stroke-linecap="round" stroke-linejoin="round"/>
<path d="M134.764 165.148C143.435 165.148 150.465 158.175 150.465 149.574C150.465 140.973 143.435 134 134.764 134C126.093 134 119.063 140.973 119.063 149.574C119.063 158.175 126.093 165.148 134.764 165.148Z" fill="#526B56" fill-opacity="0.14" stroke="#023C22" stroke-width="4"/>
<path d="M164.958 138.816C162.099 135.849 158.07 134 153.605 134C149.585 134 145.918 135.498 143.141 137.963" stroke="#023C22" stroke-width="4"/>
<path d="M172.446 165.148C181.117 165.148 188.147 158.175 188.147 149.574C188.147 140.973 181.117 134 172.446 134C163.775 134 156.745 140.973 156.745 149.574C156.745 158.175 163.775 165.148 172.446 165.148Z" fill="#526B56" fill-opacity="0.14" stroke="#023C22" stroke-width="4"/>
<path d="M172.446 140.23C167.243 140.23 163.025 144.413 163.025 149.574" stroke="#023C22" stroke-width="4"/>
<path d="M134.764 140.23C129.561 140.23 125.343 144.413 125.343 149.574" stroke="#023C22" stroke-width="4"/>
<path fill-rule="evenodd" clip-rule="evenodd" d="M1.71631 90.4514L40.8557 135.476C40.8557 135.476 38.5534 127.365 43.4587 119.779C48.3641 112.192 56.6228 109.348 56.6228 109.348C56.6228 109.348 48.4267 101.233 50.3765 92.4971C52.3264 83.7616 59.6438 79.5228 59.6438 79.5228C59.6438 79.5228 49.5035 73.1343 46.6078 66.5183C43.7121 59.9023 47.4023 50.5431 47.4023 50.5431L1.71631 90.4514Z" stroke="#526B56"/>
<path fill-rule="evenodd" clip-rule="evenodd" d="M1.69287 90.4247L31.3816 124.578C31.3816 124.578 29.6545 118.408 33.422 112.613C37.1895 106.818 43.4976 104.623 43.4976 104.623C43.4976 104.623 37.2759 98.471 38.7936 91.8112C40.3113 85.1514 45.9065 81.8973 45.9065 81.8973C45.9065 81.8973 38.1961 77.0676 36.0111 72.039C33.8262 67.0104 36.6733 59.8694 36.6733 59.8694L1.69288 90.4247H1.69287Z" stroke="#526B56"/>
<path fill-rule="evenodd" clip-rule="evenodd" d="M1.6709 90.3991L22.2728 114.099C22.2728 114.099 21.0743 109.818 23.6887 105.796C26.3031 101.775 30.6804 100.251 30.6804 100.251C30.6804 100.251 26.363 95.9827 27.4162 91.3612C28.4694 86.7398 32.3521 84.4817 32.3521 84.4817C32.3521 84.4817 27.0016 81.1302 25.4854 77.6407C23.9692 74.1512 25.9449 69.1959 25.9449 69.1959L1.6709 90.3991Z" stroke="#526B56"/>
<path d="M2.43127 90.4774L55.7029 109.119M2.72323 90.4445L59.9131 79.3364M1.64844 90.3734L13.1635 103.62C13.1635 103.62 12.4936 101.227 13.9549 98.9795C15.4162 96.7318 17.8628 95.8802 17.8628 95.8802C17.8628 95.8802 15.4497 93.4943 16.0384 90.9112C16.627 88.3281 18.7972 87.066 18.7972 87.066C18.7972 87.066 15.8066 85.1927 14.9591 83.2423C14.1117 81.2919 15.216 78.5222 15.216 78.5222L1.64844 90.3734H1.64844Z" stroke="#526B56"/>
<path d="M34.356 192.228H92.3492V204.264H34.356V192.228Z" fill="#526B56" stroke="#023C22" stroke-width="4"/>
<path d="M97.6041 47.9351C104.767 47.9351 110.573 42.1616 110.573 35.0397C110.573 27.9177 104.767 22.1442 97.6041 22.1442C90.4413 22.1442 84.6348 27.9177 84.6348 35.0397C84.6348 42.1616 90.4413 47.9351 97.6041 47.9351Z" fill="#526B56" stroke="#023C22" stroke-width="2" stroke-linecap="round" stroke-linejoin="round"/>
<path d="M66.7316 193.377V160.159L13.0102 91.0276L73.7253 20.9628L88.4721 35.8742L93.4333 31.0256L74.2346 11.608L4.09082 90.5118L59.7708 163.024V193.377H66.7316Z" fill="#526B56" stroke="#023C22" stroke-width="2" stroke-linecap="round" stroke-linejoin="round"/>
<path d="M57.0957 13.5322C55.2609 9.51647 57.3566 6.42098 61.7597 6.61749L111.995 8.85958C116.406 9.05644 117.984 12.1774 115.508 15.8479L85.7885 59.9091C83.318 63.5718 79.8247 63.2788 77.9931 59.2699L57.0957 13.5322L57.0957 13.5322Z" fill="#526B56" stroke="#023C22" stroke-width="4"/>
<path d="M57.0957 13.5322C55.2609 9.51647 57.3566 6.42098 61.7597 6.61749L111.995 8.85958C116.406 9.05644 117.984 12.1774 115.508 15.8479L85.7885 59.9091C83.318 63.5718 79.8247 63.2788 77.9931 59.2699L57.0957 13.5322L57.0957 13.5322Z" fill="#526B56" stroke="#023C22" stroke-width="4"/>
<path d="M60.8734 170.381C65.0888 170.381 68.506 166.983 68.506 162.792C68.506 158.601 65.0888 155.203 60.8734 155.203C56.658 155.203 53.2407 158.601 53.2407 162.792C53.2407 166.983 56.658 170.381 60.8734 170.381Z" fill="#526B56" stroke="#023C22" stroke-width="2" stroke-linecap="round" stroke-linejoin="round"/>
<path d="M8.9261 98.2483C13.1415 98.2483 16.5587 94.8505 16.5587 90.6591C16.5587 86.4677 13.1415 83.0699 8.9261 83.0699C4.71071 83.0699 1.29346 86.4677 1.29346 90.6591C1.29346 94.8505 4.71071 98.2483 8.9261 98.2483Z" fill="#526B56" stroke="#023C22" stroke-width="2" stroke-linecap="round" stroke-linejoin="round"/>
</svg>
