<svg width="7755" height="5771" viewBox="0 0 7755 5771" fill="none" xmlns="http://www.w3.org/2000/svg">
<path d="M7754.88 5078.25H0.078125V5082.13H7754.88V5078.25Z" fill="#EBEBEB"/>
<path d="M3697.57 4386.52H702.663C679.176 4386.52 656.65 4377.19 640.042 4360.58C623.434 4343.98 614.104 4321.45 614.104 4297.96V88.1901C614.308 64.8372 623.729 42.5104 640.315 26.0695C656.901 9.62868 679.31 0.404805 702.663 0.405701H3697.57C3709.2 0.405701 3720.71 2.69635 3731.46 7.1469C3742.2 11.5974 3751.97 18.1207 3760.19 26.3443C3768.41 34.5678 3774.94 44.3306 3779.39 55.0752C3783.84 65.8198 3786.13 77.3357 3786.13 88.9655V4297.96C3786.13 4309.59 3783.84 4321.11 3779.39 4331.85C3774.94 4342.6 3768.41 4352.36 3760.19 4360.58C3751.97 4368.81 3742.2 4375.33 3731.46 4379.78C3720.71 4384.23 3709.2 4386.52 3697.57 4386.52V4386.52ZM702.663 3.50763C680.217 3.54863 658.701 12.4837 642.829 28.3558C626.957 44.228 618.022 65.7435 617.981 88.1901V4297.96C618.022 4320.41 626.957 4341.92 642.829 4357.8C658.701 4373.67 680.217 4382.6 702.663 4382.64H3697.57C3720.01 4382.6 3741.53 4373.67 3757.4 4357.8C3773.27 4341.92 3782.21 4320.41 3782.25 4297.96V88.1901C3782.21 65.7435 3773.27 44.228 3757.4 28.3558C3741.53 12.4837 3720.01 3.54863 3697.57 3.50763H702.663Z" fill="#EBEBEB"/>
<path d="M7052.29 4386.52H4057.39C4033.9 4386.52 4011.38 4377.19 3994.77 4360.58C3978.16 4343.98 3968.83 4321.45 3968.83 4297.96V88.1901C3969.03 64.8372 3978.46 42.5104 3995.04 26.0695C4011.63 9.62868 4034.04 0.404805 4057.39 0.405701H7052.29C7075.78 0.405701 7098.31 9.73609 7114.92 26.3443C7131.52 42.9525 7140.85 65.478 7140.85 88.9655V4297.96C7140.85 4321.45 7131.52 4343.98 7114.92 4360.58C7098.31 4377.19 7075.78 4386.52 7052.29 4386.52V4386.52ZM4057.39 3.50763C4034.94 3.54863 4013.43 12.4837 3997.56 28.3558C3981.68 44.228 3972.75 65.7435 3972.71 88.1901V4297.96C3972.75 4320.41 3981.68 4341.92 3997.56 4357.8C4013.43 4373.67 4034.94 4382.6 4057.39 4382.64H7052.29C7074.74 4382.6 7096.26 4373.67 7112.13 4357.8C7128 4341.92 7136.94 4320.41 7136.98 4297.96V88.1901C7136.94 65.7435 7128 44.228 7112.13 28.3558C7096.26 12.4837 7074.74 3.54863 7052.29 3.50763H4057.39Z" fill="#EBEBEB"/>
<path d="M7754.88 5078.25H0.078125V5082.13H7754.88V5078.25Z" fill="#EBEBEB"/>
<path d="M6977.85 5327.8H6464.17V5331.68H6977.85V5327.8Z" fill="#EBEBEB"/>
<path d="M5137.17 5369.99H5002.39V5373.86H5137.17V5369.99Z" fill="#EBEBEB"/>
<path d="M6448.66 5183.87H6151.03V5187.75H6448.66V5183.87Z" fill="#EBEBEB"/>
<path d="M1483.57 5209.93H813.712V5213.8H1483.57V5209.93Z" fill="#EBEBEB"/>
<path d="M3492.07 5275.38H2039.13V5279.25H3492.07V5275.38Z" fill="#EBEBEB"/>
<path d="M2725.4 685.963C2820.36 593.782 2822.61 442.078 2730.43 347.121C2638.25 252.165 2486.54 249.914 2391.59 342.094C2296.63 434.274 2294.38 585.979 2386.56 680.935C2478.74 775.892 2630.44 778.143 2725.4 685.963Z" fill="#E0E0E0"/>
<path d="M2687.9 740.192C2807.53 683.594 2858.62 540.735 2802.03 421.108C2745.43 301.481 2602.57 250.387 2482.94 306.985C2363.32 363.584 2312.22 506.442 2368.82 626.069C2425.42 745.696 2568.28 796.791 2687.9 740.192Z" fill="#F0F0F0"/>
<path d="M2754.43 584.032C2742.48 617.451 2720.89 646.576 2692.39 667.725C2663.89 688.874 2629.76 701.097 2594.31 702.847C2558.86 704.597 2523.69 695.797 2493.24 677.559C2462.8 659.322 2438.44 632.465 2423.26 600.386C2408.08 568.307 2402.75 532.446 2407.95 497.338C2413.14 462.23 2428.64 429.452 2452.46 403.148C2476.29 376.844 2507.38 358.197 2541.81 349.563C2576.23 340.93 2612.44 342.698 2645.86 354.645C2668.05 362.578 2688.46 374.803 2705.93 390.625C2723.39 406.446 2737.57 425.552 2747.65 446.853C2757.74 468.153 2763.52 491.231 2764.69 514.769C2765.85 538.306 2762.36 561.842 2754.43 584.032V584.032Z" fill="#E6E6E6"/>
<path d="M3761.62 637.695V709.35C3806.45 712.931 3849 730.571 3883.22 759.756L3933.78 709.04C3886.04 666.591 3825.39 641.459 3761.62 637.695V637.695Z" fill="#E6E6E6"/>
<path d="M3727.04 1136.79C3676.31 1132.69 3628.7 1110.7 3592.7 1074.73C3556.71 1038.76 3534.67 991.162 3530.53 940.443H3458.72C3462.92 1010.18 3492.53 1075.95 3541.94 1125.34C3591.35 1174.72 3657.15 1204.29 3726.88 1208.45L3727.04 1136.79Z" fill="#F5F5F5"/>
<path d="M3530.53 905.856C3534.63 855.109 3556.66 807.477 3592.66 771.477C3628.66 735.476 3676.29 713.454 3727.04 709.35V637.695C3657.26 641.855 3591.43 671.439 3541.98 720.852C3492.54 770.265 3462.92 836.082 3458.72 905.856H3530.53Z" fill="#E0E0E0"/>
<path d="M3958.28 733.545L3907.57 784.261C3933.19 814.292 3950.01 850.819 3956.18 889.809C3962.35 928.8 3957.63 968.737 3942.53 1005.21C3927.43 1041.68 3902.54 1073.28 3870.62 1096.5C3838.69 1119.72 3800.97 1133.66 3761.62 1136.79V1208.45C3815.12 1205.21 3866.64 1187 3910.28 1155.88C3953.93 1124.77 3987.95 1082.01 4008.45 1032.49C4028.96 982.97 4035.13 928.681 4026.26 875.82C4017.39 822.96 3993.83 773.659 3958.28 733.545V733.545Z" fill="#EBEBEB"/>
<path d="M1321.34 1486.54L1328.01 1645.82L1709.86 1542.99L1898.92 1307.87L2111.56 1227.99L2132.65 1284.29L2293.95 1110.74L2051.07 1032.72L2075.11 1096.47L1862.94 1173.09L1680.54 1413.64L1321.34 1486.54Z" fill="#E6E6E6"/>
<path d="M6080.77 1648.77C6105.22 1692.27 6116.22 1742.05 6112.38 1791.81C6108.54 1841.56 6090.04 1889.06 6059.2 1928.3C6028.37 1967.54 5986.59 1996.76 5939.15 2012.25C5891.72 2027.75 5840.75 2028.84 5792.7 2015.37C5744.64 2001.9 5701.66 1974.49 5669.19 1936.6C5636.71 1898.71 5616.2 1852.04 5610.25 1802.49C5604.3 1752.94 5613.17 1702.74 5635.74 1658.24C5658.32 1613.73 5693.59 1576.92 5737.08 1552.45C5765.97 1536.2 5797.78 1525.8 5830.69 1521.85C5863.6 1517.9 5896.96 1520.46 5928.88 1529.41C5960.8 1538.35 5990.64 1553.5 6016.7 1573.98C6042.76 1594.46 6064.54 1619.87 6080.77 1648.77V1648.77Z" fill="#E6E6E6"/>
<path d="M6059.44 1942.66C6161.35 1847.6 6166.9 1687.92 6071.84 1586.02C5976.77 1484.11 5817.09 1478.56 5715.19 1573.62C5613.28 1668.69 5607.73 1828.36 5702.79 1930.27C5797.86 2032.18 5957.54 2037.73 6059.44 1942.66Z" fill="#F0F0F0"/>
<path d="M6058.25 1836.54C6102.06 1741.85 6060.82 1629.58 5966.13 1585.77C5871.45 1541.96 5759.17 1583.2 5715.36 1677.88C5671.55 1772.57 5712.79 1884.84 5807.48 1928.65C5902.17 1972.47 6014.44 1931.22 6058.25 1836.54Z" fill="#E6E6E6"/>
<path d="M4780.76 653.05L5018.68 546.344V796.824L4780.76 653.05Z" fill="#EBEBEB"/>
<path d="M5256.59 653.05L5018.68 546.344V796.824L5256.59 653.05Z" fill="#E0E0E0"/>
<path d="M4779.98 725.014L5019.45 1062.5L5018.68 867.703L4779.98 725.014Z" fill="#F5F5F5"/>
<path d="M5257.37 725.014L5017.75 1062.5L5018.68 867.703L5257.37 725.014Z" fill="#EBEBEB"/>
<path d="M1719.94 5209.93H1621.76V5213.8H1719.94V5209.93Z" fill="#EBEBEB"/>
<path d="M3910.67 5770.13C5571.48 5770.13 6917.83 5691.53 6917.83 5594.56C6917.83 5497.6 5571.48 5419 3910.67 5419C2249.86 5419 903.513 5497.6 903.513 5594.56C903.513 5691.53 2249.86 5770.13 3910.67 5770.13Z" fill="#F5F5F5"/>
<path d="M4304.92 5582H1147.79C1083.07 5536.47 1037.4 5468.69 1019.51 5391.6C1001.63 5314.52 1012.79 5233.55 1050.85 5164.17C1065.17 5136.11 1086.55 5112.27 1112.89 5095C1077.58 5028.43 1067.03 4951.49 1083.11 4877.87C1099.55 4808.54 1156.94 4761.54 1216.19 4723.7C1172.33 4469.93 1221.92 4208.87 1355.77 3988.86C1488.84 3772.65 1708.31 3632.13 1949.64 3563.74C1938.6 3471.18 1947.16 3377.33 1974.74 3288.29C2002.32 3199.26 2048.32 3117.01 2109.74 3046.9C2171.17 2976.78 2246.65 2920.37 2331.29 2881.32C2415.93 2842.26 2507.83 2821.44 2601.04 2820.21C2607.97 2754.5 2629.11 2691.09 2662.99 2634.37C2696.87 2577.65 2742.67 2528.97 2797.24 2491.71C2850.93 2455.19 2912.13 2431.17 2976.34 2421.43C3040.54 2411.68 3106.11 2416.46 3168.23 2435.41C3177.84 2388.88 3197.92 2345.15 3226.94 2307.53C3255.96 2269.92 3293.17 2239.39 3335.73 2218.28C3378.33 2198.19 3425.02 2188.3 3472.11 2189.4C3519.2 2190.51 3565.38 2202.57 3606.99 2224.64C3733.86 2188.66 3873.45 2256.43 3930.99 2377.1C3988.53 2497.76 3950.06 2657.82 3843.82 2737.39C3963.71 2916.06 3958.44 3195.85 3831.11 3369.09C3901.21 3388.01 3931.61 3488.52 3942 3561.72C3972.01 3774.5 3935.84 3991.36 3838.39 4182.88C3967.75 4176.68 4092.91 4273.15 4169.99 4379.23C4208.23 4433.08 4233.14 4495.25 4242.66 4560.61C4252.18 4625.97 4246.04 4692.66 4224.74 4755.19C4299.81 4750.53 4363.55 4809.93 4400.46 4876.47C4428.15 4931.72 4445.9 4991.41 4452.89 5052.81C4455.84 5058.95 4458.08 5065.4 4459.55 5072.05C4499.72 5248.55 4437.84 5458.39 4304.92 5582Z" fill="#526B56"/>
<g opacity="0.6">
<path d="M4304.92 5582H1147.79C1083.07 5536.47 1037.4 5468.69 1019.51 5391.6C1001.63 5314.52 1012.79 5233.55 1050.85 5164.17C1065.17 5136.11 1086.55 5112.27 1112.89 5095C1077.58 5028.43 1067.03 4951.49 1083.11 4877.87C1099.55 4808.54 1156.94 4761.54 1216.19 4723.7C1172.33 4469.93 1221.92 4208.87 1355.77 3988.86C1488.84 3772.65 1708.31 3632.13 1949.64 3563.74C1938.6 3471.18 1947.16 3377.33 1974.74 3288.29C2002.32 3199.26 2048.32 3117.01 2109.74 3046.9C2171.17 2976.78 2246.65 2920.37 2331.29 2881.32C2415.93 2842.26 2507.83 2821.44 2601.04 2820.21C2607.97 2754.5 2629.11 2691.09 2662.99 2634.37C2696.87 2577.65 2742.67 2528.97 2797.24 2491.71C2850.93 2455.19 2912.13 2431.17 2976.34 2421.43C3040.54 2411.68 3106.11 2416.46 3168.23 2435.41C3177.84 2388.88 3197.92 2345.15 3226.94 2307.53C3255.96 2269.92 3293.17 2239.39 3335.73 2218.28C3378.33 2198.19 3425.02 2188.3 3472.11 2189.4C3519.2 2190.51 3565.38 2202.57 3606.99 2224.64C3733.86 2188.66 3873.45 2256.43 3930.99 2377.1C3988.53 2497.76 3950.06 2657.82 3843.82 2737.39C3963.71 2916.06 3958.44 3195.85 3831.11 3369.09C3901.21 3388.01 3931.61 3488.52 3942 3561.72C3972.01 3774.5 3935.84 3991.36 3838.39 4182.88C3967.75 4176.68 4092.91 4273.15 4169.99 4379.23C4208.23 4433.08 4233.14 4495.25 4242.66 4560.61C4252.18 4625.97 4246.04 4692.66 4224.74 4755.19C4299.81 4750.53 4363.55 4809.93 4400.46 4876.47C4428.15 4931.72 4445.9 4991.41 4452.89 5052.81C4455.84 5058.95 4458.08 5065.4 4459.55 5072.05C4499.72 5248.55 4437.84 5458.39 4304.92 5582Z" fill="white"/>
</g>
<path d="M3547.44 1964.23L4523.14 1805.88C4526.56 1805.37 4530.05 1805.77 4533.27 1807.03C4536.48 1808.3 4539.31 1810.38 4541.46 1813.09C4543.62 1815.79 4545.02 1819.01 4545.53 1822.43C4546.05 1825.85 4545.65 1829.34 4544.39 1832.56L4173.25 2748.71C4172 2751.89 4169.92 2754.69 4167.24 2756.81C4164.56 2758.94 4161.36 2760.31 4157.97 2760.8C4154.58 2761.29 4151.13 2760.87 4147.96 2759.59C4144.78 2758.31 4142 2756.22 4139.9 2753.52L3535.03 1995.72C3532.89 1993.03 3531.5 1989.83 3531 1986.44C3530.49 1983.05 3530.89 1979.58 3532.15 1976.39C3533.4 1973.2 3535.48 1970.4 3538.16 1968.27C3540.85 1966.13 3544.04 1964.74 3547.44 1964.23V1964.23Z" fill="#526B56"/>
<path opacity="0.2" d="M3547.44 1964.23L4523.14 1805.88C4526.56 1805.37 4530.05 1805.77 4533.27 1807.03C4536.48 1808.3 4539.31 1810.38 4541.46 1813.09C4543.62 1815.79 4545.02 1819.01 4545.53 1822.43C4546.05 1825.85 4545.65 1829.34 4544.39 1832.56L4173.25 2748.71C4172 2751.89 4169.92 2754.69 4167.24 2756.81C4164.56 2758.94 4161.36 2760.31 4157.97 2760.8C4154.58 2761.29 4151.13 2760.87 4147.96 2759.59C4144.78 2758.31 4142 2756.22 4139.9 2753.52L3535.03 1995.72C3532.89 1993.03 3531.5 1989.83 3531 1986.44C3530.49 1983.05 3530.89 1979.58 3532.15 1976.39C3533.4 1973.2 3535.48 1970.4 3538.16 1968.27C3540.85 1966.13 3544.04 1964.74 3547.44 1964.23V1964.23Z" fill="white"/>
<path d="M3617.07 2333.83L3677.87 2255.19L3624.98 2188.81L3534.72 2230.69C3540.97 2252.46 3551.46 2272.78 3565.6 2290.48C3579.73 2308.18 3597.23 2322.91 3617.07 2333.83V2333.83Z" fill="#263238"/>
<path opacity="0.2" d="M3624.98 2188.81L3603.73 2198.58C3616.18 2228.77 3636.94 2254.8 3663.6 2273.65L3677.87 2255.19L3624.98 2188.81Z" fill="white"/>
<path opacity="0.4" d="M3581.09 2209.13L3564.19 2217.04C3578.69 2254.03 3604.04 2285.77 3636.93 2308.08L3648.25 2293.35C3620.63 2269.88 3597.82 2241.28 3581.09 2209.13Z" fill="white"/>
<path d="M3712.61 2287.76C3685.69 2273.02 3661.94 2253.1 3642.75 2229.14C3623.56 2205.19 3609.3 2177.67 3600.79 2148.18L4161.77 1700.57C4193.14 1675.44 4229.18 1656.78 4267.81 1645.65C4306.43 1634.52 4346.88 1631.15 4386.81 1635.74C4382.41 1675.67 4370.14 1714.34 4350.7 1749.51C4331.27 1784.67 4305.06 1815.64 4273.59 1840.62L3712.61 2287.76Z" fill="#526B56"/>
<path d="M4161.77 1700.1L3633.05 2122.12C3653.56 2179.86 3692.89 2229.02 3744.72 2261.71L4273.59 1839.69C4305.06 1814.71 4331.27 1783.74 4350.7 1748.58C4370.14 1713.41 4382.41 1674.74 4386.81 1634.81C4346.85 1630.29 4306.39 1633.73 4267.76 1644.94C4229.13 1656.14 4193.11 1674.89 4161.77 1700.1Z" fill="#526B56"/>
<path opacity="0.5" d="M4161.77 1700.1L3633.05 2122.12C3653.56 2179.86 3692.89 2229.02 3744.72 2261.71L4273.59 1839.69C4305.06 1814.71 4331.27 1783.74 4350.7 1748.58C4370.14 1713.41 4382.41 1674.74 4386.81 1634.81C4346.85 1630.29 4306.39 1633.73 4267.76 1644.94C4229.13 1656.14 4193.11 1674.89 4161.77 1700.1Z" fill="white"/>
<path d="M4161.77 1700.1L4137.58 1719.49C4161.05 1775.52 4199.73 1823.87 4249.24 1859.08L4273.59 1839.69C4305.06 1814.71 4331.27 1783.74 4350.7 1748.58C4370.14 1713.41 4382.41 1674.74 4386.81 1634.81C4346.85 1630.29 4306.39 1633.73 4267.76 1644.94C4229.13 1656.14 4193.11 1674.89 4161.77 1700.1Z" fill="#526B56"/>
<path opacity="0.2" d="M4161.77 1700.1L4137.58 1719.49C4161.05 1775.52 4199.73 1823.87 4249.24 1859.08L4273.59 1839.69C4305.06 1814.71 4331.27 1783.74 4350.7 1748.58C4370.14 1713.41 4382.41 1674.74 4386.81 1634.81C4346.85 1630.29 4306.39 1633.73 4267.76 1644.94C4229.13 1656.14 4193.11 1674.89 4161.77 1700.1Z" fill="white"/>
<path d="M3911.91 2680L3972.71 2601.21L3919.82 2534.99L3829.71 2576.86C3835.93 2598.63 3846.39 2618.95 3860.5 2636.65C3874.61 2654.35 3892.08 2669.08 3911.91 2680V2680Z" fill="#263238"/>
<path opacity="0.2" d="M3919.82 2534.99L3898.73 2544.76C3911.11 2574.94 3931.89 2600.93 3958.59 2619.67L3972.71 2601.21L3919.82 2534.99Z" fill="white"/>
<path opacity="0.4" d="M3876.08 2555.3L3859.18 2563.06C3873.57 2600.11 3898.88 2631.92 3931.76 2654.25L3943.24 2638.74C3915.66 2615.55 3892.85 2587.21 3876.08 2555.3V2555.3Z" fill="white"/>
<path d="M4007.6 2633.94C3953.3 2604.07 3913.07 2553.86 3895.78 2494.35L4456.76 2046.74C4488.15 2021.63 4524.18 2002.96 4562.8 1991.8C4601.42 1980.65 4641.86 1977.24 4681.81 1981.76C4677.32 2021.69 4665.02 2060.36 4645.59 2095.54C4626.16 2130.72 4600 2161.73 4568.59 2186.79L4007.6 2633.94Z" fill="#526B56"/>
<path d="M4456.76 2046.28L3927.88 2468.14C3948.47 2525.88 3987.85 2575.04 4039.71 2607.73L4568.59 2185.86C4600 2160.8 4626.16 2129.79 4645.59 2094.61C4665.02 2059.43 4677.32 2020.76 4681.81 1980.83C4641.83 1976.37 4601.37 1979.86 4562.75 1991.09C4524.13 2002.32 4488.11 2021.08 4456.76 2046.28Z" fill="#526B56"/>
<path opacity="0.5" d="M4456.76 2046.28L3927.88 2468.14C3948.47 2525.88 3987.85 2575.04 4039.71 2607.73L4568.59 2185.86C4600 2160.8 4626.16 2129.79 4645.59 2094.61C4665.02 2059.43 4677.32 2020.76 4681.81 1980.83C4641.83 1976.37 4601.37 1979.86 4562.75 1991.09C4524.13 2002.32 4488.11 2021.08 4456.76 2046.28Z" fill="white"/>
<path d="M4456.76 2046.28L4432.57 2065.51C4456.04 2121.54 4494.72 2169.89 4544.24 2205.1L4568.59 2185.71C4600 2160.64 4626.16 2129.63 4645.59 2094.45C4665.02 2059.27 4677.32 2020.61 4681.81 1980.67C4641.82 1976.24 4601.36 1979.75 4562.74 1991.01C4524.11 2002.27 4488.1 2021.05 4456.76 2046.28Z" fill="#526B56"/>
<path opacity="0.2" d="M4456.76 2046.28L4432.57 2065.51C4456.04 2121.54 4494.72 2169.89 4544.24 2205.1L4568.59 2185.71C4600 2160.64 4626.16 2129.63 4645.59 2094.45C4665.02 2059.27 4677.32 2020.61 4681.81 1980.67C4641.82 1976.24 4601.36 1979.75 4562.74 1991.01C4524.11 2002.27 4488.1 2021.05 4456.76 2046.28Z" fill="white"/>
<path d="M3754.8 2566.31L3853.13 2439.45L3767.67 2332.27L3622.04 2399.9C3632.08 2435.03 3648.98 2467.82 3671.77 2496.39C3694.56 2524.95 3722.78 2548.72 3754.8 2566.31V2566.31Z" fill="#263238"/>
<path opacity="0.2" d="M3767.67 2332.27L3733.55 2347.78C3753.54 2396.47 3787.01 2438.44 3830.02 2468.76L3853.13 2439.14L3767.67 2332.27Z" fill="white"/>
<path opacity="0.4" d="M3696.95 2365.16L3669.5 2377.87C3692.88 2437.62 3733.82 2488.88 3786.9 2524.9L3805.36 2501.02C3760.73 2463.21 3723.91 2417.06 3696.95 2365.16V2365.16Z" fill="white"/>
<path d="M3908.5 2492.02C3865.02 2468.07 3826.71 2435.76 3795.75 2396.95C3764.8 2358.15 3741.81 2313.61 3728.12 2265.89L4633.73 1543.3C4684.4 1502.8 4742.57 1472.7 4804.91 1454.74C4867.24 1436.77 4932.51 1431.29 4996.96 1438.61C4989.81 1503.07 4969.99 1565.48 4938.63 1622.26C4907.28 1679.03 4865.01 1729.05 4814.26 1769.43L3908.5 2492.02Z" fill="#526B56"/>
<path d="M4634.35 1543.3L3781.32 2224.48C3814.11 2318.01 3877.43 2397.77 3961.08 2450.92L4814.88 1769.74C4865.63 1729.36 4907.9 1679.34 4939.25 1622.57C4970.61 1565.79 4990.43 1503.38 4997.58 1438.92C4933.15 1431.56 4867.89 1436.99 4805.56 1454.9C4743.23 1472.81 4685.04 1502.85 4634.35 1543.3V1543.3Z" fill="#526B56"/>
<path opacity="0.6" d="M4634.35 1543.3L3781.32 2224.48C3814.11 2318.01 3877.43 2397.77 3961.08 2450.92L4814.88 1769.74C4865.63 1729.36 4907.9 1679.34 4939.25 1622.57C4970.61 1565.79 4990.43 1503.38 4997.58 1438.92C4933.15 1431.56 4867.89 1436.99 4805.56 1454.9C4743.23 1472.81 4685.04 1502.85 4634.35 1543.3V1543.3Z" fill="white"/>
<path d="M4634.35 1543.3L4595.26 1574.32C4633.07 1665.07 4695.56 1743.41 4775.64 1800.45L4814.88 1769.43C4865.63 1729.05 4907.9 1679.03 4939.25 1622.26C4970.61 1565.48 4990.43 1503.07 4997.58 1438.61C4933.13 1431.29 4867.86 1436.77 4805.53 1454.74C4743.19 1472.7 4685.02 1502.8 4634.35 1543.3V1543.3Z" fill="#526B56"/>
<path opacity="0.2" d="M4634.35 1543.3L4595.26 1574.32C4633.07 1665.07 4695.56 1743.41 4775.64 1800.45L4814.88 1769.43C4865.63 1729.05 4907.9 1679.03 4939.25 1622.26C4970.61 1565.48 4990.43 1503.07 4997.58 1438.61C4933.13 1431.29 4867.86 1436.77 4805.53 1454.74C4743.19 1472.7 4685.02 1502.8 4634.35 1543.3V1543.3Z" fill="white"/>
<path d="M4596.04 1866.83C4583.01 1877.2 4567.21 1883.47 4550.61 1884.86C4534.02 1886.24 4517.4 1882.68 4502.83 1874.62C4488.26 1866.56 4476.41 1854.36 4468.77 1839.57C4461.13 1824.78 4458.05 1808.05 4459.91 1791.51C4461.78 1774.97 4468.5 1759.35 4479.24 1746.62C4489.97 1733.9 4504.24 1724.64 4520.23 1720.02C4536.23 1715.4 4553.23 1715.63 4569.1 1720.67C4584.96 1725.71 4598.98 1735.34 4609.38 1748.34C4623.31 1765.83 4629.73 1788.13 4627.23 1810.34C4624.73 1832.56 4613.51 1852.88 4596.04 1866.83V1866.83Z" fill="#526B56"/>
<path d="M4477.55 1853.49C4464.32 1836.89 4457.85 1815.91 4459.44 1794.75C4461.02 1773.58 4470.53 1753.79 4486.08 1739.34C4484.3 1740.48 4482.59 1741.72 4480.96 1743.06C4472.31 1749.97 4465.11 1758.51 4459.76 1768.2C4454.42 1777.88 4451.03 1788.53 4449.8 1799.53C4448.57 1810.52 4449.52 1821.65 4452.59 1832.28C4455.66 1842.91 4460.79 1852.83 4467.7 1861.48C4474.6 1870.13 4483.14 1877.33 4492.83 1882.67C4502.52 1888.02 4513.16 1891.4 4524.16 1892.64C4535.15 1893.87 4546.29 1892.92 4556.92 1889.85C4567.55 1886.78 4577.47 1881.65 4586.11 1874.74L4590.77 1870.55C4573.22 1882.5 4551.8 1887.39 4530.81 1884.22C4509.82 1881.06 4490.79 1870.08 4477.55 1853.49V1853.49Z" fill="#526B56"/>
<path opacity="0.3" d="M4477.55 1853.49C4464.32 1836.89 4457.85 1815.91 4459.44 1794.75C4461.02 1773.58 4470.53 1753.79 4486.08 1739.34C4484.3 1740.48 4482.59 1741.72 4480.96 1743.06C4472.31 1749.97 4465.11 1758.51 4459.76 1768.2C4454.42 1777.88 4451.03 1788.53 4449.8 1799.53C4448.57 1810.52 4449.52 1821.65 4452.59 1832.28C4455.66 1842.91 4460.79 1852.83 4467.7 1861.48C4474.6 1870.13 4483.14 1877.33 4492.83 1882.67C4502.52 1888.02 4513.16 1891.4 4524.16 1892.64C4535.15 1893.87 4546.29 1892.92 4556.92 1889.85C4567.55 1886.78 4577.47 1881.65 4586.11 1874.74L4590.77 1870.55C4573.22 1882.5 4551.8 1887.39 4530.81 1884.22C4509.82 1881.06 4490.79 1870.08 4477.55 1853.49V1853.49Z" fill="black"/>
<path d="M4580.53 1847.44C4571.32 1854.8 4560.14 1859.25 4548.39 1860.25C4536.65 1861.24 4524.88 1858.73 4514.56 1853.03C4504.25 1847.33 4495.85 1838.7 4490.45 1828.23C4485.04 1817.76 4482.86 1805.92 4484.19 1794.21C4485.51 1782.5 4490.28 1771.44 4497.89 1762.45C4505.5 1753.45 4515.61 1746.91 4526.94 1743.66C4538.27 1740.41 4550.3 1740.59 4561.53 1744.18C4572.75 1747.78 4582.66 1754.62 4589.99 1763.85C4594.89 1769.94 4598.53 1776.95 4600.71 1784.46C4602.88 1791.98 4603.55 1799.85 4602.67 1807.62C4601.79 1815.39 4599.38 1822.91 4595.58 1829.74C4591.78 1836.58 4586.67 1842.6 4580.53 1847.44V1847.44Z" fill="white"/>
<path d="M4495.23 1835.5L4600.07 1782.92C4598 1776.49 4594.86 1770.46 4590.77 1765.09L4486.23 1817.36C4488.21 1823.86 4491.25 1829.99 4495.23 1835.5V1835.5Z" fill="#526B56"/>
<path d="M4511.51 1850.86L4602.71 1805.26C4603.1 1801.55 4603.1 1797.8 4602.71 1794.09L4502.98 1844.03C4505.62 1846.55 4508.47 1848.84 4511.51 1850.86Z" fill="#526B56"/>
<g opacity="0.7">
<path d="M4495.23 1835.5L4600.07 1782.92C4598 1776.49 4594.86 1770.46 4590.77 1765.09L4486.23 1817.36C4488.21 1823.86 4491.25 1829.99 4495.23 1835.5V1835.5Z" fill="white"/>
<path d="M4511.51 1850.86L4602.71 1805.26C4603.09 1801.55 4603.09 1797.8 4602.71 1794.09L4502.98 1844.03C4505.62 1846.55 4508.47 1848.84 4511.51 1850.86Z" fill="white"/>
</g>
<path d="M5618.59 2781.9H4785.1V5579.83H5618.59V2781.9Z" fill="#526B56"/>
<path opacity="0.2" d="M5018.52 2781.59H4783.09V5578.28H5018.52V2781.59Z" fill="black"/>
<path d="M1839.98 4801.71H1006.5V5579.99H1839.98V4801.71Z" fill="#526B56"/>
<path opacity="0.2" d="M1234.18 4800.94H998.742V5578.43H1234.18V4800.94Z" fill="black"/>
<path d="M3050.04 4128.44H2216.56V5579.83H3050.04V4128.44Z" fill="#526B56"/>
<path opacity="0.2" d="M2446.25 4127.82H2210.82V5578.44H2446.25V4127.82Z" fill="black"/>
<path d="M4346.34 3455.17H3512.85V5579.83H4346.34V3455.17Z" fill="#526B56"/>
<path opacity="0.2" d="M3744.41 3454.7H3508.97V5578.43H3744.41V3454.7Z" fill="black"/>
<path d="M6828.65 2108.63H5995.16V5579.83H6828.65V2108.63Z" fill="#526B56"/>
<path opacity="0.2" d="M6230.6 2108.63H5995.16V5578.43H6230.6V2108.63Z" fill="black"/>
<path d="M2666.49 3673.7L2597.63 3908.67L2699.06 3932.4L2776.3 3707.51L2666.49 3673.7Z" fill="#FF8B7B"/>
<path d="M2721.86 3905.26L2605.69 3882.77C2603.47 3882.44 2601.2 3882.87 2599.26 3884C2597.31 3885.13 2595.81 3886.88 2594.99 3888.97L2553.27 3986.68C2551.38 3990.66 2551.11 3995.22 2552.53 3999.4C2553.95 4003.57 2556.94 4007.02 2560.87 4009.02L2564.13 4010.1C2606.31 4017.39 2644.31 4022.05 2696.73 4032.13C2758.77 4044.07 2741.25 4049.03 2813.83 4064.08C2857.41 4073.07 2875.87 4021.27 2858.34 4015.07C2775.52 3987.3 2772.26 3958.15 2746.05 3919.22C2740.14 3911.56 2731.45 3906.55 2721.86 3905.26V3905.26Z" fill="#263238"/>
<path d="M2117.91 2139.96L2518.22 2385.01L2098.84 2458.52L2117.91 2139.96Z" fill="#263238"/>
<path d="M2759.55 3821.35L2615 3795.45C2615 3795.45 2668.82 3595.07 2727.13 3321.17C2736.13 3278.98 2852.29 2957.93 2852.29 2957.93C2852.29 2957.93 2278.44 2689 2269.29 2686.05C2262 2683.72 2215 2680.16 2141.64 2622.77C2005.16 2516.06 2048.59 2307.3 2048.59 2307.3L2405.31 2315.83C2753.5 2501.95 3055.78 2773.83 3096.57 2885.19C3153.96 3041.99 2759.55 3821.35 2759.55 3821.35Z" fill="#263238"/>
<path d="M1327.23 3569.01L1088.85 3625.15L1118.48 3725.19L1352.05 3681.14L1327.23 3569.01Z" fill="#FF8B7B"/>
<path d="M1153.22 3731.4L1115.06 3618.8C1114.23 3616.71 1112.73 3614.95 1110.79 3613.8C1108.86 3612.65 1106.6 3612.17 1104.36 3612.44L998.742 3624.54C994.352 3624.85 990.264 3626.89 987.362 3630.2C984.46 3633.5 982.976 3637.82 983.232 3642.22C983.085 3643.3 983.085 3644.39 983.232 3645.47C997.811 3685.8 1012.39 3721.16 1029.76 3771.72C1050.08 3831.43 1037.21 3818.25 1060.78 3889.28C1074.43 3931.78 1128.87 3922.47 1125.3 3903.71C1108.55 3818.1 1132.28 3800.88 1153.22 3758.85C1156.78 3750.04 1156.78 3740.2 1153.22 3731.4V3731.4Z" fill="#263238"/>
<path d="M1244.88 3722.71L1196.02 3584.37L1954.29 3161.73C1954.29 3161.73 1904.81 2530.33 1902.49 2520.56C1900.16 2510.79 1880.77 2470.47 1894.42 2378.18C1919.7 2207.58 2122.26 2141.04 2122.26 2141.04L2295.5 2506.6C2295.5 2506.6 2215 3247.65 2138.39 3338.07C2030.6 3465.41 1244.88 3722.71 1244.88 3722.71Z" fill="#263238"/>
<path opacity="0.2" d="M2269.29 2686.05L2141.64 2622.77L2239.98 2925.52L2269.29 2686.05Z" fill="black"/>
<path d="M2574.67 1692.19C2508.91 1706.31 2442.84 1718.87 2376.77 1731.12L2327.14 1740.12L2282.94 1747.72C2263.8 1751.8 2246.18 1761.14 2232.06 1774.7L2162.43 1846.05C2139.16 1870.24 2115.9 1894.44 2092.17 1918.17C2045.64 1965.94 1997.56 2013.55 1949.17 2060.39C1941.54 2067.77 1931.43 2072.03 1920.82 2072.35C1910.21 2072.67 1899.87 2069.02 1891.8 2062.12C1883.74 2055.22 1878.54 2045.56 1877.21 2035.03C1875.89 2024.5 1878.54 2013.86 1884.65 2005.18C1923.11 1950.12 1962.2 1896.61 2002.52 1842.02C2022.22 1814.72 2042.38 1788.04 2062.54 1761.37L2124.58 1679.63C2155.09 1642.75 2195.67 1615.54 2241.37 1601.31L2295.03 1586.73L2343.42 1574.01C2408.1 1557.57 2472.62 1541.13 2537.6 1526.24C2558.7 1523.52 2580.06 1528.77 2597.48 1540.98C2614.9 1553.19 2627.13 1571.47 2631.77 1592.23C2636.41 1612.99 2633.13 1634.74 2622.57 1653.2C2612 1671.67 2594.92 1685.52 2574.67 1692.04V1692.19Z" fill="#526B56"/>
<path opacity="0.1" d="M2574.67 1692.19C2508.91 1706.31 2442.84 1718.87 2376.77 1731.12L2327.14 1740.12L2282.94 1747.72C2263.8 1751.8 2246.18 1761.14 2232.06 1774.7L2162.43 1846.05C2139.16 1870.24 2115.9 1894.44 2092.17 1918.17C2045.64 1965.94 1997.56 2013.55 1949.17 2060.39C1941.54 2067.77 1931.43 2072.03 1920.82 2072.35C1910.21 2072.67 1899.87 2069.02 1891.8 2062.12C1883.74 2055.22 1878.54 2045.56 1877.21 2035.03C1875.89 2024.5 1878.54 2013.86 1884.65 2005.18C1923.11 1950.12 1962.2 1896.61 2002.52 1842.02C2022.22 1814.72 2042.38 1788.04 2062.54 1761.37L2124.58 1679.63C2155.09 1642.75 2195.67 1615.54 2241.37 1601.31L2295.03 1586.73L2343.42 1574.01C2408.1 1557.57 2472.62 1541.13 2537.6 1526.24C2558.7 1523.52 2580.06 1528.77 2597.48 1540.98C2614.9 1553.19 2627.13 1571.47 2631.77 1592.23C2636.41 1612.99 2633.13 1634.74 2622.57 1653.2C2612 1671.67 2594.92 1685.52 2574.67 1692.04V1692.19Z" fill="black"/>
<path d="M1871.47 2004.25L1769.1 2043.95L1862.16 2133.6L1939.71 2071.56C1941.89 2069.85 1943.69 2067.71 1945.02 2065.27C1946.34 2062.83 1947.15 2060.15 1947.39 2057.39C1947.64 2054.63 1947.32 2051.85 1946.45 2049.22C1945.58 2046.59 1944.19 2044.16 1942.35 2042.09C1933.63 2031.4 1922.87 2022.55 1910.71 2016.05C1898.54 2009.56 1885.2 2005.54 1871.47 2004.25V2004.25Z" fill="#FF8B7B"/>
<path d="M1769.1 2043.95L1753.59 2073.73C1749.72 2080.89 1748.51 2089.19 1750.15 2097.16C1751.8 2105.13 1756.2 2112.27 1762.59 2117.31L1795.47 2143.06C1800.38 2146.93 1806.25 2149.4 1812.45 2150.19C1818.65 2150.98 1824.95 2150.07 1830.68 2147.56L1861.7 2133.6L1769.1 2043.95Z" fill="#FF8B7B"/>
<path d="M1309.4 2449.84L1271.71 2443.63L1295.13 2415.25L1766.78 2245.89C1841.84 2218.9 1890.85 2168.34 1852.08 2076.52C1816.25 1991.22 1735.6 1965.94 1660.69 1992.61L1189.04 2159.96L1150.89 2152.83L1174.62 2125.22L1646.42 1958.18C1733.59 1927.16 1817.03 1934.3 1874.26 2068.3C1931.49 2202.3 1868.36 2248.37 1781.2 2279.7L1309.4 2449.84Z" fill="#263238"/>
<path d="M1449.14 1938.02L1438.75 1914.6C1428.32 1891.11 1409.68 1872.22 1386.33 1861.49C1362.97 1850.75 1336.5 1848.9 1311.88 1856.28L964 1960.82L1026.04 2114.52L1449.14 1938.02Z" fill="#263238"/>
<path opacity="0.2" d="M1449.14 1938.02L1438.75 1914.6C1428.32 1891.11 1409.68 1872.22 1386.33 1861.49C1362.97 1850.75 1336.5 1848.9 1311.88 1856.28L964 1960.82L1026.04 2114.52L1449.14 1938.02Z" fill="white"/>
<path d="M1329.56 2505.05L1315.14 2470.47L1772.52 2268.84C1845.26 2236.89 1892.09 2181.52 1853.63 2090.17C1817.8 2004.71 1739.01 1983.46 1666.27 2015.1L1208.9 2214.56L1194.32 2180.13L1651.7 1981.14C1736.38 1944.38 1818.42 1946.71 1874.88 2081.02C1931.33 2215.33 1871.31 2266.05 1786.78 2303.27L1329.56 2505.05Z" fill="#263238"/>
<path d="M1277.45 2721.1L995.484 2039.61L1336.7 1893.97C1346.92 1889.42 1357.94 1886.94 1369.13 1886.7C1380.31 1886.45 1391.44 1888.44 1401.85 1892.54C1412.26 1896.64 1421.75 1902.77 1429.76 1910.58C1437.78 1918.39 1444.15 1927.72 1448.52 1938.02L1655.57 2433.4C1666.63 2460.74 1666.61 2491.31 1655.52 2518.63C1644.43 2545.96 1623.15 2567.9 1596.17 2579.81L1277.45 2721.1Z" fill="#263238"/>
<g opacity="0.3">
<path d="M1329.56 2505.05L1292.8 2500.71L1315.14 2469.69L1772.52 2268.07C1845.26 2236.12 1892.09 2180.75 1853.63 2089.39C1817.8 2003.94 1739.01 1982.69 1666.27 2014.33L1208.9 2214.56L1171.67 2209.44L1194.32 2180.13L1651.7 1981.14C1736.38 1944.38 1818.42 1946.71 1874.88 2081.02C1931.33 2215.33 1871.31 2266.05 1786.78 2303.27L1329.56 2505.05Z" fill="white"/>
</g>
<path d="M1389.89 2147.09L1366.32 2090.48L1387.41 2081.17L1411.14 2137.94L1389.89 2147.09Z" fill="#263238"/>
<path d="M1252.48 2207.11L1228.75 2150.19L1250 2140.89L1273.73 2197.81L1252.48 2207.11Z" fill="#263238"/>
<path d="M1511.49 2438.67L1487.76 2381.6L1508.85 2372.29L1532.58 2429.21L1511.49 2438.67Z" fill="#263238"/>
<path d="M1373.92 2499.31L1350.19 2442.24L1371.44 2432.78L1395.17 2489.85L1373.92 2499.31Z" fill="#263238"/>
<path d="M3109.29 1433.34C3113.79 1435.51 3114.72 1442.8 3111.31 1448.85C3107.89 1454.9 3101.69 1459.39 3097.35 1457.22C3093 1455.05 3092.07 1447.76 3095.33 1440.94C3098.59 1434.11 3104.95 1431.01 3109.29 1433.34Z" fill="#263238"/>
<path d="M3106.19 1438.61C3111.97 1439.72 3117.97 1438.73 3123.09 1435.82C3120.18 1436.11 3117.25 1435.81 3114.45 1434.96C3111.66 1434.11 3109.06 1432.72 3106.81 1430.86C3107.33 1432.11 3107.54 1433.46 3107.43 1434.81C3107.32 1436.16 3106.9 1437.46 3106.19 1438.61V1438.61Z" fill="#263238"/>
<path d="M3067.57 1503.29C3072.38 1507.41 3078.04 1510.44 3084.15 1512.16C3090.26 1513.87 3096.67 1514.23 3102.93 1513.21C3098.31 1488.89 3097 1464.06 3099.05 1439.39L3067.57 1503.29Z" fill="#FF5652"/>
<path d="M3084.78 1398.6C3090.2 1397.34 3095.83 1397.38 3101.23 1398.73C3106.62 1400.08 3111.62 1402.69 3115.8 1406.35V1406.35L3116.73 1407.44C3117.21 1407.8 3117.75 1408.06 3118.33 1408.21C3118.91 1408.36 3119.52 1408.39 3120.11 1408.31C3120.7 1408.22 3121.27 1408.02 3121.78 1407.71C3122.29 1407.4 3122.74 1406.99 3123.09 1406.51C3123.45 1406.04 3123.71 1405.51 3123.86 1404.94C3124.01 1404.38 3124.04 1403.79 3123.95 1403.21C3123.86 1402.63 3123.66 1402.07 3123.35 1401.57C3123.04 1401.07 3122.64 1400.64 3122.16 1400.3C3117.08 1395.51 3110.91 1392.02 3104.19 1390.13C3097.46 1388.24 3090.38 1388 3083.54 1389.45C3082.5 1389.61 3081.56 1390.17 3080.91 1391C3080.1 1391.86 3079.65 1393 3079.65 1394.18C3079.65 1395.36 3080.1 1396.49 3080.91 1397.36C3081.43 1397.83 3082.04 1398.18 3082.71 1398.39C3083.38 1398.61 3084.09 1398.68 3084.78 1398.6V1398.6Z" fill="#263238"/>
<path d="M2775.21 1715.61C2674.71 1638.06 2702.32 1571.68 2702.32 1571.68C2754.89 1566.1 2798.32 1514.14 2829.34 1461.88C2828.58 1479.39 2831.05 1496.9 2836.63 1513.52C2847.95 1547.95 2919.45 1563.62 2919.45 1563.62C2919.45 1563.62 2912.47 1572.46 2903.94 1585.64C2880.99 1618.06 2844.85 1677.92 2866.41 1708.63C2865.63 1708.63 2885.8 1801.07 2775.21 1715.61Z" fill="#FF8B7B"/>
<path d="M2914.64 1572.92C2909.99 1576.65 2905.34 1580.37 2900.84 1584.71C2900.34 1584.89 2899.79 1584.89 2899.29 1584.71C2884.58 1577.95 2871.46 1568.18 2860.77 1556.02C2850.09 1543.86 2842.07 1529.6 2837.25 1514.14C2831.6 1497.48 2829.13 1479.91 2829.96 1462.34C2838.03 1449.16 2845.47 1435.66 2851.36 1423.26L2913.4 1568.12L2914.64 1572.92Z" fill="#FF8B7B"/>
<path d="M3050.2 1547.95C3036.38 1564.89 3018.48 1578.04 2998.19 1586.18C2977.9 1594.32 2955.88 1597.18 2934.18 1594.48V1594.48C2922.87 1593.22 2911.83 1590.18 2901.46 1585.49C2900.96 1585.66 2900.41 1585.66 2899.91 1585.49C2885.2 1578.73 2872.08 1568.95 2861.39 1556.79C2850.71 1544.64 2842.69 1530.37 2837.87 1514.92C2832.22 1498.26 2829.75 1480.69 2830.58 1463.12C2832.29 1420.93 2852.29 1378.9 2878.04 1317.64C2886.1 1297.62 2899.14 1280 2915.94 1266.45C2932.74 1252.9 2952.72 1243.88 2973.99 1240.24C2995.26 1236.6 3017.11 1238.47 3037.45 1245.66C3057.8 1252.86 3075.96 1265.14 3090.21 1281.34C3154.11 1353.15 3104.79 1481.88 3050.2 1547.95Z" fill="#FF8B7B"/>
<path opacity="0.2" d="M2927.21 1591.69C2918.88 1591.23 2910.72 1589.18 2903.17 1585.64C2912.47 1572.46 2919.61 1563.77 2918.68 1563.62L2937.75 1542.53C2937.75 1542.53 2921.93 1587.5 2927.21 1591.69Z" fill="black"/>
<path d="M3131.16 1391.46C3113.01 1397.98 3078.89 1388.67 3082.15 1386.5C3094.86 1379.21 3110.22 1358.12 3093.31 1352.38C3090.52 1363.54 3052.83 1433.65 3041.98 1437.06C3036.08 1439.08 2995.45 1486.07 2939.46 1512.9C2895.57 1534.31 2887.04 1545.01 2887.04 1545.01L2809.49 1504.53C2786.53 1481.26 2731.16 1272.97 2848.57 1233.26C2887.04 1220.24 2916.5 1187.67 2977.61 1205.19C3015.3 1216.05 3059.5 1209.38 3096.57 1222.25C3115.48 1227.78 3132.76 1237.83 3146.92 1251.53C3161.08 1265.23 3171.69 1282.17 3177.84 1300.89C3182.03 1319.5 3177.07 1375.33 3131.16 1391.46Z" fill="#263238"/>
<path d="M3060.43 1408.21C3075.94 1430.86 3063.07 1470.25 3048.49 1490.72C3033.91 1511.2 3007.08 1515.38 2999.64 1485.92C2994.31 1463.52 2996.43 1439.99 3005.68 1418.91C3017.32 1393.79 3044.3 1385.57 3060.43 1408.21Z" fill="#FF8B7B"/>
<path d="M2645.4 1585.02C2645.4 1585.02 2698.59 1549.51 2733.8 1552.92C2769.01 1556.33 2859.12 1652.8 2870.29 1671.72C2881.45 1690.64 2868.27 1740.43 2868.27 1740.43L2645.4 1585.02Z" fill="#526B56"/>
<path opacity="0.3" d="M2645.4 1585.02C2645.4 1585.02 2698.59 1549.51 2733.8 1552.92C2769.01 1556.33 2859.12 1652.8 2870.29 1671.72C2881.45 1690.64 2868.27 1740.43 2868.27 1740.43L2645.4 1585.02Z" fill="white"/>
<path d="M2895.41 1749.42C2884.95 1736.5 2873.77 1724.17 2861.91 1712.51C2809 1666.5 2753.49 1623.57 2695.65 1583.94C2674.55 1570.09 2652.35 1558 2629.27 1547.8C2606.68 1537.36 2581.13 1535.28 2557.16 1541.93C2533.18 1548.57 2512.35 1563.52 2498.36 1584.09C2418.18 1702.58 2399.26 1794.56 2345.91 1872.1C2276.29 1971.56 2194.95 2062.28 2103.65 2142.28L2170.03 2213.32C2273.37 2293.36 2391.8 2351.76 2518.22 2385.01V2385.01C2518.22 2385.01 2639.04 2192.07 2708.36 2142.9C2897.74 2008.43 2886.42 1954.62 2915.88 1896.45C2927.82 1872.77 2932.26 1846.01 2928.6 1819.74C2924.95 1793.47 2913.37 1768.94 2895.41 1749.42Z" fill="#526B56"/>
<path d="M2915.88 1896.61C2905.34 1917.24 2900.37 1937.71 2888.74 1961.44C2867.59 2003.36 2837.84 2040.36 2801.42 2070.01C2771.83 2096.13 2740.76 2120.52 2708.37 2143.06C2679.16 2167.09 2653.11 2194.71 2630.82 2225.26V2225.26C2618.24 2241.34 2610.9 2260.89 2609.79 2281.28C2608.68 2301.67 2613.85 2321.9 2624.61 2339.25C2673.78 2419.44 2748.69 2533.9 2748.69 2533.9C2695.34 2519.94 2673.62 2514.2 2588.79 2541.03C2456.02 2582.91 2177.63 2546 2099.15 2433.86C2120.17 2381.44 2153.22 2334.69 2195.62 2297.38C2146.98 2329.59 2102.36 2367.5 2062.7 2410.29C2027.65 2417.58 1992.13 2398.35 1966.85 2373.37C1941.57 2348.4 1922.65 2317.08 1898.3 2291.17C1873.95 2265.27 1847.27 2240.77 1811.75 2243.87C1858.28 2181.83 1936.92 2156.4 2010.9 2135.3C2066.11 2119.79 2136.53 2096.53 2189.26 2061.63C2247.14 2003.4 2299.72 1940.13 2346.37 1872.57C2399.57 1795.02 2418.34 1703.05 2498.83 1584.4C2512.79 1563.8 2533.63 1548.84 2557.61 1542.19C2581.59 1535.54 2607.15 1537.64 2629.73 1548.11C2652.81 1558.37 2675.01 1570.51 2696.11 1584.4C2753.84 1624.01 2809.3 1666.83 2862.22 1712.67C2874.04 1724.41 2885.22 1736.79 2895.72 1749.73C2913.54 1769.31 2925 1793.82 2928.6 1820.04C2932.2 1846.26 2927.77 1872.96 2915.88 1896.61V1896.61Z" fill="#526B56"/>
<path d="M3649.64 1694.21L3729.52 1659.62C3732.82 1658.18 3735.94 1656.36 3738.82 1654.19L3774.81 1626.12C3777.3 1624.21 3779.16 1621.58 3780.13 1618.59C3781.1 1615.6 3781.13 1612.39 3780.23 1609.37L3743.79 1551.37C3742.72 1547.08 3740.1 1543.34 3736.43 1540.88C3732.76 1538.41 3728.31 1537.4 3723.93 1538.03L3669.96 1558.19C3665.9 1559.64 3662.27 1562.1 3659.41 1565.32L3605.29 1624.26C3603.11 1627.03 3601.72 1630.34 3601.26 1633.83C3600.79 1637.32 3601.27 1640.87 3602.65 1644.11L3626.53 1681.96C3628.1 1686.56 3631.36 1690.39 3635.66 1692.67C3639.95 1694.94 3644.96 1695.5 3649.64 1694.21V1694.21Z" fill="#FF8B7B"/>
<path opacity="0.2" d="M2801.27 2069.7L2835.7 1882.03L2908.59 1921.27C2882.85 1989.36 2852.6 2024.1 2801.27 2069.7Z" fill="black"/>
<path d="M3328.13 1940.04C3427.7 1870.86 3552.71 1773.15 3643.9 1694.52C3652.43 1664.43 3624.05 1624.88 3595.2 1636.98C3523.39 1667.07 3308.9 1786.03 3271.05 1787.11C3245 1787.89 2976.37 1749.11 2888.59 1736.4C2871.14 1733.68 2853.31 1737.49 2838.49 1747.1C2789.95 1779.98 2777.54 1815.96 2780.33 1847.6C2783.13 1871.66 2794.33 1893.95 2811.94 1910.58C2829.56 1927.2 2852.47 1937.08 2876.64 1938.49C2999.33 1947.64 3183.27 1957.87 3254.92 1960.98C3280.97 1962.26 3306.71 1954.9 3328.13 1940.04V1940.04Z" fill="#526B56"/>
<path d="M2991.42 1468.08C2963.19 1549.19 2925.34 1703.98 2863.15 1762.76C2800.96 1821.54 2713.64 1824.8 2630.51 1844.34C2610.5 1849.31 2584.91 1874.59 2585.22 1870.55C2564.59 1893.57 2551.54 1922.38 2547.84 1953.06L2457.42 1882.5C2448.34 1876.49 2440.88 1868.34 2435.71 1858.77C2432.98 1850 2432.48 1840.69 2434.24 1831.67C2436 1822.66 2439.97 1814.22 2445.79 1807.12C2457.22 1788.15 2466.39 1767.9 2473.08 1746.79C2441.72 1770.25 2418.24 1802.71 2405.77 1839.84C2361.73 1824.34 2310.23 1787.27 2309.3 1740.43C2308.97 1721.89 2312.54 1703.48 2319.78 1686.41C2327.02 1669.33 2337.77 1653.97 2351.33 1641.32C2320.52 1657.64 2295.58 1683.18 2279.99 1714.37C2270.53 1686.61 2247.42 1659 2217.95 1659.93C2240.5 1609.88 2269.43 1562.97 2304.03 1520.35C2340.32 1479.56 2389.8 1447.45 2443.62 1443.73C2485.18 1440.78 2525.97 1454.28 2565.68 1466.84C2605.38 1479.4 2646.64 1491.65 2687.89 1486.38C2729.15 1481.11 2771.64 1417.83 2779.4 1376.88C2838.34 1343.07 2921.16 1426.2 2991.42 1468.08Z" fill="#263238"/>
<path opacity="0.2" d="M3266.25 1394.25C3262.11 1474.83 3226.15 1550.46 3166.27 1604.53C3106.38 1658.6 3027.48 1686.67 2946.9 1682.58H2945.82C2933.17 1681.82 2920.58 1680.27 2908.13 1677.92C2849.02 1594.47 2769.37 1527.69 2676.88 1484.05C2672.62 1472.4 2669.1 1460.48 2666.33 1448.38C2656.42 1406 2655.72 1361.99 2664.27 1319.32C2672.82 1276.64 2690.44 1236.3 2715.92 1201.02C2741.4 1165.74 2774.16 1136.34 2811.98 1114.8C2849.8 1093.26 2891.8 1080.09 2935.15 1076.18C2978.5 1072.27 3022.18 1077.71 3063.24 1092.13C3104.31 1106.55 3141.8 1129.61 3173.18 1159.76C3204.57 1189.91 3229.12 1226.45 3245.17 1266.9C3261.23 1307.36 3268.41 1350.79 3266.25 1394.25V1394.25Z" fill="black"/>
<path d="M3065.55 1665.21C3027.6 1678.79 2987.32 1684.7 2947.06 1682.58H2945.97C2933.27 1681.84 2920.63 1680.28 2908.13 1677.92C2849.06 1594.43 2769.4 1527.65 2676.88 1484.05C2672.55 1472.42 2669.03 1460.5 2666.33 1448.38C2657.1 1409.22 2655.73 1368.62 2662.3 1328.93C2668.87 1289.24 2683.26 1251.24 2704.62 1217.15C2725.99 1183.06 2753.91 1153.55 2786.77 1130.33C2819.62 1107.11 2856.76 1090.65 2896.03 1081.89C2913.86 1090.81 2929.45 1103.64 2941.63 1119.42C2966.93 1155.89 2982.23 1198.35 2985.99 1242.57C2994.99 1309.19 2993.42 1376.82 2981.33 1442.95C2971.99 1488.35 2976.42 1535.49 2994.05 1578.35C3024.45 1647.22 3065.55 1665.21 3065.55 1665.21Z" fill="#526B56"/>
<path opacity="0.4" d="M3065.55 1665.21C3027.6 1678.79 2987.32 1684.7 2947.06 1682.58H2945.97C2933.27 1681.84 2920.63 1680.28 2908.13 1677.92C2849.06 1594.43 2769.4 1527.65 2676.88 1484.05C2672.55 1472.42 2669.03 1460.5 2666.33 1448.38C2657.1 1409.22 2655.73 1368.62 2662.3 1328.93C2668.87 1289.24 2683.26 1251.24 2704.62 1217.15C2725.99 1183.06 2753.91 1153.55 2786.77 1130.33C2819.62 1107.11 2856.76 1090.65 2896.03 1081.89C2913.86 1090.81 2929.45 1103.64 2941.63 1119.42C2966.93 1155.89 2982.23 1198.35 2985.99 1242.57C2994.99 1309.19 2993.42 1376.82 2981.33 1442.95C2971.99 1488.35 2976.42 1535.49 2994.05 1578.35C3024.45 1647.22 3065.55 1665.21 3065.55 1665.21Z" fill="white"/>
<path d="M2942.1 1704.91C2940.72 1706.16 2939.1 1707.11 2937.34 1707.72C2935.59 1708.32 2933.73 1708.57 2931.87 1708.44C2930.02 1708.31 2928.21 1707.81 2926.56 1706.96C2924.9 1706.11 2923.43 1704.94 2922.24 1703.52C2917.28 1695.45 2912.01 1688.01 2906.73 1679.63C2848.99 1595.22 2770.33 1527.24 2678.43 1482.35C2668.97 1477.54 2659.51 1473.2 2650.05 1469.01C2640.59 1464.82 2643.07 1453.5 2650.05 1447.14C2652.69 1445.24 2655.87 1444.21 2659.12 1444.21C2662.38 1444.21 2665.55 1445.24 2668.2 1447.14C2670.38 1448.36 2672.16 1450.2 2673.31 1452.41C2782.5 1504.94 2876.03 1585.15 2944.58 1685.06C2946.57 1688.13 2947.42 1691.81 2946.96 1695.44C2946.51 1699.07 2944.79 1702.43 2942.1 1704.91V1704.91Z" fill="#526B56"/>
<path d="M3005.84 1404.34C3005.84 1409.64 3004.27 1414.83 3001.32 1419.24C2998.37 1423.65 2994.18 1427.09 2989.28 1429.12C2984.37 1431.16 2978.98 1431.69 2973.77 1430.65C2968.57 1429.62 2963.79 1427.06 2960.03 1423.31C2956.28 1419.56 2953.73 1414.77 2952.69 1409.57C2951.66 1404.37 2952.19 1398.97 2954.22 1394.07C2956.25 1389.16 2959.69 1384.97 2964.1 1382.03C2968.51 1379.08 2973.7 1377.5 2979.01 1377.5C2986.12 1377.5 2992.95 1380.33 2997.98 1385.36C3003.01 1390.39 3005.84 1397.22 3005.84 1404.34Z" fill="#263238"/>
<path d="M3014.83 1411.78C3014.86 1417.13 3013.3 1422.37 3010.35 1426.83C3007.4 1431.29 3003.18 1434.78 2998.25 1436.84C2993.31 1438.9 2987.87 1439.45 2982.62 1438.41C2977.37 1437.37 2972.55 1434.8 2968.77 1431.02C2964.98 1427.23 2962.41 1422.41 2961.37 1417.16C2960.34 1411.91 2960.88 1406.47 2962.95 1401.54C2965.01 1396.6 2968.49 1392.38 2972.95 1389.43C2977.41 1386.48 2982.65 1384.92 2988 1384.95C2995.11 1384.99 3001.91 1387.83 3006.93 1392.85C3011.95 1397.87 3014.79 1404.68 3014.83 1411.78V1411.78Z" fill="#526B56"/>
<path opacity="0.7" d="M3014.83 1411.78C3014.86 1417.13 3013.3 1422.37 3010.35 1426.83C3007.4 1431.29 3003.18 1434.78 2998.25 1436.84C2993.31 1438.9 2987.87 1439.45 2982.62 1438.41C2977.37 1437.37 2972.55 1434.8 2968.77 1431.02C2964.98 1427.23 2962.41 1422.41 2961.37 1417.16C2960.34 1411.91 2960.88 1406.47 2962.95 1401.54C2965.01 1396.6 2968.49 1392.38 2972.95 1389.43C2977.41 1386.48 2982.65 1384.92 2988 1384.95C2995.11 1384.99 3001.91 1387.83 3006.93 1392.85C3011.95 1397.87 3014.79 1404.68 3014.83 1411.78V1411.78Z" fill="white"/>
<path d="M6798.09 762.392C6798.09 863.377 6757.98 960.225 6686.57 1031.63C6615.16 1103.04 6518.32 1143.15 6417.33 1143.15C6408.8 1143.15 6400.43 1143.15 6391.9 1142.22C6295.31 1136.05 6204.71 1093.33 6138.49 1022.75C6072.28 952.165 6035.42 859.017 6035.42 762.237C6035.42 665.458 6072.28 572.31 6138.49 501.728C6204.71 431.145 6295.31 388.426 6391.9 382.252C6400.43 382.252 6408.8 382.252 6417.33 382.252C6518.21 382.252 6614.96 422.283 6686.35 493.555C6757.74 564.827 6797.93 661.516 6798.09 762.392V762.392Z" fill="#526B56"/>
<path opacity="0.2" d="M6746.76 762.393C6742.22 831.833 6717.47 898.43 6675.55 953.981C6633.64 1009.53 6576.39 1051.61 6510.87 1075.03C6445.34 1098.46 6374.39 1102.2 6306.76 1085.81C6239.13 1069.42 6177.77 1033.6 6130.24 982.771C6082.71 931.943 6051.09 868.322 6039.26 799.746C6027.44 731.169 6035.93 660.631 6063.69 596.82C6091.45 533.008 6137.27 478.71 6195.5 440.613C6253.74 402.516 6321.84 382.283 6391.43 382.407C6487.82 388.824 6578.17 431.655 6644.15 502.216C6710.13 572.777 6746.81 665.788 6746.76 762.393Z" fill="white"/>
<path opacity="0.4" d="M6654.44 871.358C6714.65 725.984 6645.62 559.319 6500.24 499.103C6354.87 438.887 6188.21 507.922 6127.99 653.296C6067.77 798.671 6136.81 965.335 6282.18 1025.55C6427.56 1085.77 6594.22 1016.73 6654.44 871.358Z" fill="white"/>
<path opacity="0.4" d="M6440.35 965.351C6553.48 938.65 6623.54 825.296 6596.84 712.167C6570.14 599.039 6456.78 528.975 6343.66 555.676C6230.53 582.377 6160.46 695.731 6187.16 808.859C6213.87 921.988 6327.22 992.051 6440.35 965.351Z" fill="white"/>
<path d="M6460.76 762.393C6460.76 778.65 6455.94 794.543 6446.91 808.061C6437.87 821.579 6425.04 832.115 6410.02 838.336C6394.99 844.558 6378.47 846.186 6362.52 843.014C6346.58 839.842 6331.93 832.013 6320.43 820.517C6308.94 809.021 6301.11 794.375 6297.94 778.429C6294.77 762.484 6296.39 745.956 6302.61 730.936C6308.84 715.915 6319.37 703.078 6332.89 694.045C6346.41 685.013 6362.3 680.192 6378.56 680.192C6389.36 680.171 6400.06 682.284 6410.04 686.407C6420.02 690.531 6429.09 696.585 6436.73 704.222C6444.37 711.859 6450.42 720.929 6454.54 730.912C6458.67 740.894 6460.78 751.592 6460.76 762.393Z" fill="#263238"/>
<path d="M5807.5 1044.82L5883.65 1057.23L5995.32 991.314V991.159L5938.4 966.034L5807.5 1044.82Z" fill="#526B56"/>
<path d="M6334.31 783.516L5880.78 1051.95L5886.55 1061.69L6340.08 793.26L6334.31 783.516Z" fill="#263238"/>
<path d="M5873.88 1125.32L5983.99 1060.02L5995.32 991.314L5883.65 1057.23L5873.88 1125.32Z" fill="#526B56"/>
<path opacity="0.2" d="M5873.88 1125.32L5983.99 1060.02L5995.32 991.314L5883.65 1057.23L5873.88 1125.32Z" fill="black"/>
<path d="M6366.62 758.205L6290.93 777.592L6359.95 815.59L6391.12 766.115L6366.62 758.205Z" fill="white"/>
<path d="M6405.54 276.167C6401.83 276.27 6398.14 275.635 6394.67 274.3C6391.21 272.964 6388.04 270.954 6385.36 268.387C6382.67 265.819 6380.53 262.744 6379.04 259.341C6377.55 255.937 6376.76 252.273 6376.7 248.559V124.483C6376.7 116.996 6379.67 109.816 6384.96 104.523C6390.26 99.2291 6397.44 96.2551 6404.92 96.2551C6412.41 96.2551 6419.59 99.2291 6424.88 104.523C6430.18 109.816 6433.15 116.996 6433.15 124.483V248.559C6433.03 255.844 6430.09 262.796 6424.93 267.948C6419.78 273.1 6412.83 276.047 6405.54 276.167Z" fill="#526B56"/>
<path d="M6405.54 1429.93C6401.83 1429.95 6398.15 1429.23 6394.72 1427.82C6391.28 1426.41 6388.16 1424.33 6385.54 1421.7C6382.91 1419.08 6380.83 1415.96 6379.42 1412.53C6378.01 1409.09 6377.3 1405.41 6377.32 1401.7V1277.62C6377.32 1270.14 6380.29 1262.96 6385.58 1257.66C6390.88 1252.37 6398.06 1249.39 6405.54 1249.39C6413.03 1249.39 6420.21 1252.37 6425.5 1257.66C6430.8 1262.96 6433.77 1270.14 6433.77 1277.62V1401.7C6433.79 1405.41 6433.08 1409.09 6431.67 1412.53C6430.25 1415.96 6428.18 1419.08 6425.55 1421.7C6422.92 1424.33 6419.81 1426.41 6416.37 1427.82C6412.94 1429.23 6409.26 1429.95 6405.54 1429.93V1429.93Z" fill="#526B56"/>
<path d="M5891.87 772.939H5767.01C5763.12 773.228 5759.21 772.71 5755.53 771.418C5751.84 770.126 5748.46 768.088 5745.6 765.432C5742.74 762.775 5740.46 759.557 5738.9 755.979C5737.34 752.4 5736.54 748.538 5736.54 744.634C5736.54 740.73 5737.34 736.868 5738.9 733.29C5740.46 729.711 5742.74 726.493 5745.6 723.837C5748.46 721.18 5751.84 719.142 5755.53 717.85C5759.21 716.559 5763.12 716.041 5767.01 716.329H5891.87C5895.76 716.041 5899.67 716.559 5903.35 717.85C5907.04 719.142 5910.42 721.18 5913.28 723.837C5916.14 726.493 5918.42 729.711 5919.98 733.29C5921.54 736.868 5922.35 740.73 5922.35 744.634C5922.35 748.538 5921.54 752.4 5919.98 755.979C5918.42 759.557 5916.14 762.775 5913.28 765.432C5910.42 768.088 5907.04 770.126 5903.35 771.418C5899.67 772.71 5895.76 773.228 5891.87 772.939V772.939Z" fill="#526B56"/>
<path d="M7059.12 772.939H6934.11C6926.97 772.41 6920.29 769.198 6915.41 763.948C6910.54 758.698 6907.83 751.799 6907.83 744.634C6907.83 737.469 6910.54 730.57 6915.41 725.32C6920.29 720.07 6926.97 716.858 6934.11 716.329H7059.12C7066.27 716.858 7072.95 720.07 7077.82 725.32C7082.7 730.57 7085.41 737.469 7085.41 744.634C7085.41 751.799 7082.7 758.698 7077.82 763.948C7072.95 769.198 7066.27 772.41 7059.12 772.939V772.939Z" fill="#526B56"/>
</svg>
