<?xml version="1.0" encoding="UTF-8"?>
<!DOCTYPE svg PUBLIC "-//W3C//DTD SVG 1.1//EN" "http://www.w3.org/Graphics/SVG/1.1/DTD/svg11.dtd">
<!-- Creator: CorelDRAW 2021 (64-Bit) -->
<svg xmlns="http://www.w3.org/2000/svg" xml:space="preserve" width="69.127mm" height="14.817mm" version="1.1" style="shape-rendering:geometricPrecision; text-rendering:geometricPrecision; image-rendering:optimizeQuality; fill-rule:evenodd; clip-rule:evenodd"
viewBox="0 0 6912.7 1481.7"
 xmlns:xlink="http://www.w3.org/1999/xlink"
 xmlns:xodm="http://www.corel.com/coreldraw/odm/2003">
 <defs>
  <style type="text/css">
   <![CDATA[
    .str0 {stroke:#526B56;stroke-width:26.46;stroke-miterlimit:22.9256}
    .fil2 {fill:none}
    .fil0 {fill:#526B56}
    .fil1 {fill:white;fill-rule:nonzero}
   ]]>
  </style>
   <clipPath id="id0">
    <path d="M-0.19 1482.37l6912.74 0 0 -1481.66 -6912.74 0 0 1481.66z"/>
   </clipPath>
 </defs>
 <g id="Layer_x0020_1">
  <metadata id="CorelCorpID_0Corel-Layer"/>
  <polygon class="fil0" points="-0.19,1482.37 6912.55,1482.37 6912.55,0.71 -0.19,0.71 "/>
  <g style="clip-path:url(#id0)">
   <g id="_2424917442496">
    <path id="_1" class="fil1" d="M1408.04 961.17l0 -360.95c0,0 0,-9.01 -10.16,-9.01 -9.01,0 -9.01,9.01 -9.01,9.01l0 360.95c0,0 0,8.08 9.93,8.08 10.16,0 9.24,-8.08 9.24,-8.08z"/>
    <path class="fil1" d="M-0.19 1482.37l6912.74 0 0 -1481.66 -6912.74 0 0 1481.66zm614.74 -513.13c9.01,0 9.01,-7.16 9.01,-7.16l0 -392.12 25.17 0 0 391.2c0,0 2.08,30.25 -32.33,30.25 -34.41,0 -34.18,-30.25 -34.18,-30.25l0 -391.2 25.17 0 0 390.27c0,0 -2.07,9.01 7.16,9.01zm873.16 84.52l-961.84 0 0 -40.41 961.84 0 0 40.41zm-747.07 -62.35l0 -421.45 20.09 0 25.17 225.16 0 -225.16 21.25 0 0 421.45 -21.25 0 -25.17 -253.33 0 253.33 -20.09 0zm215.69 -235.78l0 23.09 -27.25 0 0 190.52 36.26 0 0 22.17 -64.43 0 0 -421.45 55.42 0 0 21.24 -27.25 0 0 164.43 27.25 0zm124.48 213.15c6.46,0.46 6.46,-7.62 6.46,-7.62l0 -97.23c0,-40.87 -39.26,-130.01 -39.26,-182.89l0 -80.6c0,0 0,-29.33 33.26,-30.25 33.25,-0.93 32.33,30.25 32.33,30.25l0 94.68 -26.1 0 0 -94.68c0,0 0,-9.01 -7.15,-9.01 -7.16,0 -6.01,9.01 -6.01,9.01l0 94.68c0,31.18 39.26,125.4 39.26,175.05 0,20.55 0,91.22 0,91.22 0,0 0,30.25 -33.25,30.25 -33.26,0 -32.34,-30.25 -32.34,-30.25l0 -105.77 26.33 0 0 105.77c0,-0.23 0,6.93 6.47,7.39zm157.72 -377.58c-9,0 -9,9.01 -9,9.01l0 360.95c0,0 1.61,8.08 9,8.08 8.08,0 8.08,-8.08 8.08,-8.08l0 -105.77 25.18 0 0 105.77c0,0 0,30.25 -33.26,30.25 -33.25,0 -32.33,-30.25 -32.33,-30.25l0 -360.95c0,0 0,-30.25 32.33,-30.25 32.33,0 33.26,30.25 33.26,30.25l0 94.68 -25.18 0 0 -94.68c0,0 0,-9.01 -8.08,-9.01zm125.17 369.96l0 -360.95c0,0 0,-30.25 35.33,-30.25 35.34,0 33.26,30.25 33.26,30.25l0 360.95c0,0 0,30.25 -35.34,30.25 -33.25,0 -33.25,-30.25 -33.25,-30.25zm-837.83 -456.1l961.84 0 0 40.42 -961.84 0 0 -40.42zm77.6 -25.86l403.21 -123.09 397.2 123.09 -116.85 0 -280.35 -85.68 -286.36 85.68 -116.85 0zm-77.6 -43.42l480.81 -148.25 481.03 148.25 0 43.42 -484.04 -146.18 -477.8 146.18 0 -43.42zm-54.5 646.15l1068.76 0 0 40.19 -1068.76 0 0 -40.19zm1121.19 109l-1171.53 0 0 -40.41 1171.53 0 0 40.41zm5278.21 249.64l-4857.23 0 0 -1398.06 4857.23 0 0 1398.06z"/>
    <path class="fil1" d="M5769 898.57c-30.72,30.48 -71.36,47.34 -114.78,47.34 -89.62,0 -162.59,-72.97 -162.59,-162.58 0,-89.6 72.74,-162.57 162.59,-162.57 42.94,0 83.37,16.62 114.06,46.88l4.18 4.15 73.9 -157.26 -2.78 -2.08c-55.88,-39.49 -121.71,-60.5 -190.29,-60.5 -181.98,0 -329.77,148.02 -329.77,329.77 0,181.97 148.03,329.77 329.77,329.77 68.34,0 133.93,-20.78 189.81,-60.27l2.78 -2.08 -72.73 -154.73 -4.15 4.16z"/>
    <path class="fil1" d="M6237.28 946.38c-89.38,0 -162.11,-72.74 -162.11,-162.11 0,-89.37 72.73,-162.12 162.11,-162.12 89.38,0 162.11,72.75 162.11,162.12 0,89.37 -72.73,162.11 -162.11,162.11zm-0.93 -493.04c-181.5,0 -329.3,147.8 -329.3,329.31 0,181.52 147.8,329.31 329.3,329.31 181.51,0 329.31,-147.79 329.31,-329.31 0,-181.51 -147.56,-329.31 -329.31,-329.31z"/>
    <path class="fil1" d="M2634.1 472.98l0 340.39c0,27.71 2.77,70.67 34.64,99.77 13.86,12.47 38.79,29.09 83.13,29.09 37.41,0 66.52,-12.47 84.54,-29.09 29.07,-27.72 33.23,-69.28 33.23,-99.77l0 -340.39 199.31 0 0 359.79c0,70.67 -6.93,136.94 -69.3,197.91 -70.64,69.28 -174.33,80.37 -247.78,80.37 -76.2,0 -178.51,-11.09 -249.17,-80.37 -56.81,-55.42 -67.9,-117.54 -67.9,-185.44l0 -372.26 199.3 0z"/>
    <path class="fil1" d="M3223.65 472.96l199.28 0 0 73.44c60.96,-77.59 132.8,-90.06 190.98,-90.06 54.06,0 124.73,9.7 177.14,62.35 58.18,58.19 62.34,131.4 62.34,181.28l0 390.28 -199.29 0 0 -316.84c0,-40.18 -1.37,-91.22 -33.26,-123.09 -15.24,-15.24 -40.19,-27.71 -75.96,-27.71 -41.56,0 -67.89,16.63 -83.16,33.26 -33.23,33.25 -38.79,77.59 -38.79,117.54l0 317.07 -199.28 0 0 -617.52z"/>
    <path class="fil1" d="M4456.82 697.2c-1.4,-5.55 -11.09,-44.34 -40.19,-72.06 -22.17,-20.78 -54.03,-34.63 -94.22,-34.63 -51.27,0 -81.75,20.78 -101.15,40.18 -15.24,16.62 -29.1,38.79 -34.63,66.51l270.19 0zm184.04 118.93l-460.93 0c0,33.25 12.47,77.59 37.42,105.3 30.48,33.26 72.04,38.8 102.28,38.8 29.11,0 59.59,-5.54 80.38,-18.01 2.76,-1.39 26.33,-16.63 42.95,-51.27l188.22 19.4c-27.73,87.06 -83.16,132.78 -118.93,154.95 -59.58,36.03 -126.1,45.73 -195.16,45.73 -92.6,0 -174.36,-16.63 -246.4,-88.68 -54.03,-54.04 -92.82,-135.56 -92.82,-238.09 0,-88.45 31.86,-179.9 94.22,-243.64 74.82,-74.82 167.43,-88.67 236.7,-88.67 69.29,0 168.8,12.47 245.03,92.83 73.42,77.59 87.28,174.36 87.28,250.56l0 20.79 -0.24 0z"/>
    <path class="fil1" d="M5143.39 630.71c-30.48,-18.01 -70.67,-34.64 -109.25,-34.64 -20.77,0 -44.34,5.55 -56.8,18.02 -6.94,6.93 -12.47,18.01 -12.47,27.71 0,13.86 9.69,22.17 19.4,27.71 13.86,8.32 34.63,12.47 59.58,20.79l52.65 16.62c34.64,11.09 70.67,24.94 102.29,54.04 36.04,33.26 48.5,70.67 48.5,117.78 0,81.75 -36.01,134.17 -63.74,161.88 -60.96,60.97 -135.78,70.44 -200.66,70.44 -83.16,0 -172.98,-18.02 -253.34,-88.45l84.51 -134.17c19.39,16.62 47.12,36.02 67.89,45.72 27.73,13.86 56.81,19.4 83.14,19.4 12.48,0 44.34,0 62.36,-13.86 12.46,-9.69 20.79,-24.94 20.79,-40.18 0,-11.08 -4.15,-24.94 -22.17,-36.03 -13.86,-8.31 -31.88,-13.85 -60.98,-22.17l-49.88 -15.24c-36.01,-11.08 -73.42,-30.48 -99.75,-56.81 -29.1,-30.48 -44.34,-65.12 -44.34,-112.23 0,-59.58 23.55,-109.23 59.58,-142.48 55.41,-51.27 130.02,-62.36 186.83,-62.36 91.2,0 154.94,23.56 204.84,52.66l-78.98 125.85z"/>
   </g>
  </g>
  <polygon class="fil2 str0" points="-0.19,1482.37 6912.55,1482.37 6912.55,0.71 -0.19,0.71 "/>
 </g>
</svg>
